<svg xmlns="http://www.w3.org/2000/svg" xmlns:xlink="http://www.w3.org/1999/xlink" width="650" zoomAndPan="magnify" viewBox="0 0 487.5 125.999998" height="168" preserveAspectRatio="xMidYMid meet" version="1.0"><defs><g/><clipPath id="5710427ca6"><rect x="0" width="334" y="0" height="63"/></clipPath></defs><path fill="#ffffff" d="M 38.664062 15.070312 C 39.429688 15.242188 39.949219 15.511719 40.617188 15.917969 L 40.960938 16.128906 C 41.199219 16.273438 41.4375 16.421875 41.671875 16.566406 C 42.035156 16.792969 42.398438 17.015625 42.761719 17.234375 C 44.539062 18.324219 44.539062 18.324219 44.964844 18.964844 C 45.019531 19.441406 45.019531 19.441406 45.027344 20.023438 L 45.039062 20.691406 L 45.046875 21.425781 C 45.050781 21.683594 45.054688 21.9375 45.058594 22.195312 C 45.074219 23.042969 45.082031 23.886719 45.089844 24.734375 L 45.09375 25.167969 C 45.105469 26.527344 45.117188 27.886719 45.125 29.242188 C 45.132812 30.980469 45.148438 32.714844 45.179688 34.453125 C 45.195312 35.671875 45.207031 36.894531 45.210938 38.113281 C 45.210938 38.84375 45.21875 39.574219 45.234375 40.300781 C 45.25 40.988281 45.253906 41.675781 45.25 42.359375 C 45.25 42.730469 45.261719 43.101562 45.273438 43.472656 C 45.261719 44.167969 45.226562 44.675781 44.964844 45.324219 C 44.222656 45.996094 43.441406 46.390625 42.535156 46.820312 C 42.167969 47.027344 41.800781 47.234375 41.433594 47.445312 C 41.066406 47.652344 40.695312 47.855469 40.328125 48.058594 C 38.703125 48.960938 37.085938 49.878906 35.480469 50.816406 L 34.949219 51.125 C 34.613281 51.320312 34.28125 51.519531 33.949219 51.722656 C 33.375 52.054688 33.375 52.054688 32.753906 52.34375 C 32.042969 52.703125 31.53125 53.007812 30.945312 53.550781 C 30.59375 54.476562 30.617188 55.382812 30.636719 56.359375 C 30.632812 56.644531 30.628906 56.925781 30.625 57.210938 C 30.617188 57.976562 30.621094 58.742188 30.632812 59.511719 C 30.640625 60.3125 30.632812 61.117188 30.632812 61.921875 C 30.628906 63.273438 30.636719 64.621094 30.648438 65.972656 C 30.664062 67.53125 30.664062 69.089844 30.652344 70.648438 C 30.644531 72.148438 30.648438 73.652344 30.65625 75.152344 C 30.660156 75.792969 30.660156 76.429688 30.652344 77.066406 C 30.648438 77.820312 30.65625 78.570312 30.667969 79.324219 C 30.671875 79.597656 30.671875 79.875 30.667969 80.148438 C 30.65625 80.980469 30.679688 81.734375 30.945312 82.527344 C 31.5625 83.136719 32.21875 83.484375 33.003906 83.835938 C 33.21875 83.960938 33.4375 84.089844 33.648438 84.226562 L 34.203125 84.546875 L 34.84375 84.917969 L 35.175781 85.109375 C 37.25 86.316406 39.3125 87.546875 41.363281 88.796875 C 43.316406 89.992188 45.289062 91.15625 47.269531 92.304688 C 48.207031 92.847656 49.144531 93.398438 50.066406 93.976562 L 50.464844 94.222656 C 50.761719 94.492188 50.761719 94.492188 50.898438 94.898438 L 50.949219 95.238281 C 49.757812 96 48.535156 96.707031 47.304688 97.40625 C 46.726562 97.734375 46.144531 98.066406 45.5625 98.398438 L 45.214844 98.597656 C 43.933594 99.328125 42.660156 100.0625 41.386719 100.804688 L 41.019531 101.015625 C 40.785156 101.152344 40.554688 101.296875 40.328125 101.449219 C 40 101.664062 40 101.664062 39.359375 101.96875 C 38.449219 101.96875 37.796875 101.703125 37.023438 101.261719 L 36.660156 101.046875 L 36.261719 100.816406 C 35.28125 100.242188 34.316406 99.640625 33.355469 99.03125 C 32.085938 98.230469 30.792969 97.476562 29.496094 96.722656 C 27.394531 95.496094 25.304688 94.246094 23.226562 92.972656 C 21.957031 92.199219 20.671875 91.449219 19.371094 90.726562 C 19.179688 90.613281 18.992188 90.496094 18.792969 90.378906 L 18.296875 90.089844 C 17.859375 89.632812 17.859375 89.632812 17.773438 89.277344 C 17.738281 88.816406 17.734375 88.363281 17.742188 87.898438 L 17.738281 87.363281 C 17.734375 86.765625 17.738281 86.171875 17.742188 85.578125 C 17.742188 85.148438 17.738281 84.722656 17.738281 84.296875 C 17.734375 83.140625 17.734375 81.980469 17.738281 80.820312 C 17.742188 79.609375 17.742188 78.398438 17.742188 77.1875 C 17.738281 75.152344 17.742188 73.121094 17.75 71.085938 C 17.753906 68.992188 17.753906 66.898438 17.75 64.804688 C 17.75 62.28125 17.75 59.761719 17.753906 57.238281 C 17.753906 56.273438 17.753906 55.3125 17.75 54.347656 C 17.75 53.214844 17.753906 52.078125 17.757812 50.945312 C 17.757812 50.527344 17.757812 50.109375 17.757812 49.695312 C 17.757812 49.125 17.757812 48.558594 17.761719 47.992188 L 17.757812 47.488281 C 17.765625 47.066406 17.777344 46.675781 17.859375 46.257812 C 18.328125 45.640625 18.894531 45.308594 19.566406 44.921875 L 20.144531 44.589844 L 20.769531 44.238281 L 21.417969 43.867188 C 23.179688 42.859375 24.957031 41.878906 26.734375 40.894531 C 27.964844 40.210938 29.191406 39.519531 30.410156 38.804688 L 30.804688 38.570312 C 31.375 38.253906 31.375 38.253906 31.878906 37.847656 C 31.898438 37.539062 31.902344 37.234375 31.898438 36.929688 L 31.898438 36.367188 L 31.890625 35.777344 L 31.890625 35.1875 C 31.886719 34.703125 31.882812 34.21875 31.878906 33.734375 C 29.929688 34.660156 28.0625 35.695312 26.203125 36.792969 C 24.773438 37.636719 23.332031 38.449219 21.878906 39.25 C 19.519531 40.550781 17.1875 41.894531 14.867188 43.269531 L 14.382812 43.464844 L 13.933594 43.828125 C 13.839844 44.394531 13.808594 44.851562 13.816406 45.417969 L 13.8125 45.914062 C 13.808594 46.46875 13.808594 47.019531 13.8125 47.570312 C 13.804688 49.042969 13.804688 50.515625 13.808594 51.984375 C 13.808594 53.113281 13.804688 54.238281 13.800781 55.367188 C 13.792969 57.503906 13.792969 59.640625 13.792969 61.777344 C 13.792969 64.90625 13.789062 68.035156 13.78125 71.167969 L 13.777344 72.554688 L 13.777344 73.242188 C 13.773438 74.582031 13.773438 75.921875 13.773438 77.261719 C 13.773438 78.097656 13.773438 78.9375 13.769531 79.773438 C 13.769531 80.160156 13.769531 80.542969 13.769531 80.929688 C 13.773438 83.03125 13.738281 85.109375 13.558594 87.199219 C 12.761719 86.941406 12.070312 86.648438 11.339844 86.226562 L 10.707031 85.863281 L 10.03125 85.472656 L 9.332031 85.070312 C 8.621094 84.660156 7.914062 84.246094 7.203125 83.835938 L 6.550781 83.457031 C 5.433594 82.808594 4.320312 82.160156 3.207031 81.507812 C 2.867188 81.304688 2.523438 81.105469 2.183594 80.90625 L 1.667969 80.605469 L 1.203125 80.335938 C 0.847656 80.097656 0.847656 80.097656 0.660156 79.722656 C 0.640625 79.167969 0.632812 78.621094 0.636719 78.066406 L 0.632812 77.539062 C 0.632812 76.953125 0.632812 76.367188 0.632812 75.78125 L 0.632812 74.527344 C 0.628906 73.386719 0.628906 72.246094 0.628906 71.109375 C 0.628906 70.160156 0.628906 69.207031 0.628906 68.257812 C 0.625 66.144531 0.625 64.03125 0.625 61.917969 L 0.625 61.148438 C 0.625 59.09375 0.625 57.035156 0.621094 54.976562 C 0.617188 52.863281 0.617188 50.75 0.617188 48.640625 C 0.617188 47.453125 0.617188 46.265625 0.613281 45.078125 C 0.613281 43.964844 0.613281 42.847656 0.613281 41.734375 C 0.613281 41.324219 0.613281 40.914062 0.613281 40.503906 C 0.613281 39.945312 0.613281 39.386719 0.613281 38.828125 L 0.609375 38.332031 C 0.617188 37.535156 0.636719 36.882812 1.035156 36.164062 C 1.46875 35.84375 1.46875 35.84375 2.015625 35.550781 L 2.632812 35.21875 L 2.960938 35.046875 C 3.421875 34.800781 3.882812 34.554688 4.339844 34.304688 C 4.574219 34.179688 4.8125 34.050781 5.046875 33.921875 C 6.164062 33.320312 7.257812 32.683594 8.347656 32.039062 C 9.855469 31.152344 11.375 30.285156 12.90625 29.433594 C 15.003906 28.265625 17.082031 27.058594 19.152344 25.84375 C 22.316406 23.996094 25.496094 22.1875 28.691406 20.40625 C 31.167969 19.023438 33.632812 17.628906 36.070312 16.183594 L 36.410156 15.984375 C 36.632812 15.851562 36.855469 15.710938 37.074219 15.5625 C 37.640625 15.191406 37.980469 15.035156 38.664062 15.070312 " fill-opacity="1" fill-rule="nonzero"/><path fill="#ffffff" d="M 49.453125 21.207031 C 50.117188 21.460938 50.738281 21.753906 51.367188 22.09375 L 51.941406 22.402344 L 52.5625 22.738281 L 53.210938 23.089844 C 53.890625 23.460938 54.570312 23.828125 55.25 24.199219 L 55.894531 24.550781 C 58.375 25.90625 60.820312 27.304688 63.234375 28.769531 C 64.773438 29.699219 66.332031 30.578125 67.898438 31.449219 C 69.808594 32.511719 71.714844 33.578125 73.570312 34.730469 C 74.117188 35.058594 74.117188 35.058594 74.710938 35.242188 C 75.429688 35.527344 75.847656 35.78125 76.375 36.351562 C 76.820312 37.652344 76.679688 39.136719 76.660156 40.496094 C 76.664062 40.921875 76.667969 41.351562 76.671875 41.78125 C 76.679688 42.945312 76.675781 44.109375 76.667969 45.273438 C 76.664062 46.492188 76.667969 47.710938 76.671875 48.929688 C 76.675781 51.105469 76.667969 53.285156 76.652344 55.460938 C 76.644531 57.433594 76.644531 59.40625 76.652344 61.378906 C 76.664062 63.917969 76.664062 66.453125 76.65625 68.992188 C 76.652344 69.960938 76.65625 70.929688 76.660156 71.898438 C 76.664062 73.039062 76.660156 74.175781 76.648438 75.316406 C 76.644531 75.738281 76.644531 76.15625 76.648438 76.574219 C 76.671875 79.160156 76.671875 79.160156 76.375 80.097656 C 75.886719 80.667969 75.5 80.929688 74.820312 81.230469 L 74.316406 81.40625 L 73.691406 81.769531 L 73.171875 82.054688 L 72.570312 82.382812 L 71.945312 82.726562 C 70.292969 83.632812 68.652344 84.5625 67.027344 85.519531 C 65.234375 86.574219 63.421875 87.589844 61.601562 88.589844 C 60.566406 89.160156 59.542969 89.742188 58.535156 90.355469 L 57.964844 90.699219 C 57.613281 90.917969 57.261719 91.136719 56.910156 91.355469 L 56.4375 91.644531 L 56.027344 91.902344 C 55.621094 92.0625 55.621094 92.0625 55.167969 92.027344 C 54.628906 91.855469 54.179688 91.628906 53.6875 91.347656 L 53.105469 91.023438 L 52.492188 90.671875 L 51.855469 90.308594 C 50.570312 89.582031 49.296875 88.839844 48.027344 88.089844 C 46.785156 87.351562 45.53125 86.644531 44.277344 85.9375 C 43.238281 85.355469 42.203125 84.769531 41.171875 84.175781 L 40.820312 83.976562 C 40.253906 83.652344 39.691406 83.328125 39.125 83.003906 L 38.496094 82.644531 L 37.949219 82.328125 C 37.378906 82.011719 36.808594 81.695312 36.234375 81.382812 L 35.671875 81.078125 L 35.246094 80.84375 C 35.207031 77.671875 35.175781 74.496094 35.160156 71.324219 C 35.148438 69.847656 35.136719 68.375 35.117188 66.902344 C 35.101562 65.617188 35.089844 64.332031 35.085938 63.046875 C 35.085938 62.367188 35.078125 61.6875 35.066406 61.007812 C 35.054688 60.25 35.054688 59.488281 35.054688 58.730469 L 35.035156 58.046875 C 35.042969 57.4375 35.066406 56.9375 35.246094 56.355469 C 35.746094 55.832031 36.28125 55.535156 36.929688 55.234375 L 37.496094 54.894531 L 38.003906 54.617188 C 38.285156 54.460938 38.285156 54.460938 38.574219 54.296875 L 39.171875 53.972656 C 40.511719 53.226562 41.851562 52.480469 43.167969 51.691406 C 44.539062 50.875 45.929688 50.101562 47.328125 49.332031 C 49.308594 48.238281 49.308594 48.238281 51.253906 47.089844 C 52.675781 46.21875 54.132812 45.410156 55.589844 44.601562 C 56.160156 44.285156 56.734375 43.960938 57.304688 43.640625 L 57.941406 43.289062 L 58.558594 42.941406 L 59.121094 42.628906 L 59.546875 42.332031 L 59.734375 41.773438 L 59.414062 41.613281 C 57.152344 40.472656 54.949219 39.207031 52.75 37.953125 L 52.269531 37.679688 C 51.96875 37.507812 51.671875 37.332031 51.375 37.160156 C 51.089844 36.992188 50.800781 36.832031 50.511719 36.671875 L 50.101562 36.4375 L 49.734375 36.234375 L 49.453125 35.976562 C 49.242188 35.214844 49.242188 34.476562 49.242188 33.6875 L 49.242188 33.285156 C 49.242188 32.847656 49.242188 32.410156 49.242188 31.972656 L 49.242188 31.058594 C 49.242188 30.421875 49.242188 29.789062 49.242188 29.152344 C 49.242188 28.335938 49.242188 27.515625 49.242188 26.699219 C 49.242188 26.074219 49.242188 25.445312 49.242188 24.816406 C 49.242188 24.515625 49.242188 24.214844 49.242188 23.914062 C 49.242188 23.492188 49.242188 23.074219 49.242188 22.65625 L 49.242188 21.929688 L 49.265625 21.394531 Z M 62.160156 55.539062 L 61.589844 55.863281 L 60.972656 56.214844 L 60.335938 56.574219 C 59.699219 56.9375 59.0625 57.300781 58.425781 57.664062 L 57.429688 58.230469 C 56.804688 58.585938 56.179688 58.945312 55.554688 59.304688 C 54.867188 59.699219 54.179688 60.089844 53.488281 60.480469 L 52.0625 61.292969 L 51.363281 61.691406 C 51.035156 61.875 50.710938 62.0625 50.382812 62.25 L 49.8125 62.574219 C 49.242188 62.914062 48.6875 63.261719 48.144531 63.644531 C 47.925781 64.085938 47.921875 64.375 47.90625 64.867188 L 47.890625 65.402344 C 47.867188 66.207031 47.851562 67.011719 47.839844 67.820312 C 47.832031 68.246094 47.820312 68.667969 47.808594 69.09375 C 47.785156 69.707031 47.773438 70.320312 47.769531 70.933594 L 47.742188 71.507812 C 47.742188 72.058594 47.765625 72.472656 47.957031 72.992188 C 48.519531 73.503906 49.140625 73.800781 49.828125 74.113281 C 50.042969 74.238281 50.257812 74.367188 50.472656 74.496094 C 51.085938 74.855469 51.699219 75.214844 52.316406 75.574219 L 52.644531 75.769531 C 52.960938 75.957031 53.28125 76.140625 53.597656 76.328125 L 54.164062 76.65625 C 54.683594 76.917969 55.046875 77.070312 55.621094 77.105469 C 56.140625 76.933594 56.140625 76.933594 56.660156 76.640625 L 57.253906 76.324219 C 58.234375 75.78125 59.203125 75.222656 60.167969 74.652344 L 61.324219 73.972656 L 61.859375 73.652344 C 62.160156 73.476562 62.464844 73.3125 62.773438 73.160156 C 63.171875 72.972656 63.171875 72.972656 63.660156 72.617188 C 63.886719 71.742188 63.875 70.859375 63.871094 69.960938 L 63.875 69.503906 C 63.875 69.011719 63.875 68.519531 63.875 68.027344 C 63.875 67.683594 63.875 67.339844 63.875 66.992188 C 63.875 66.273438 63.875 65.554688 63.871094 64.835938 C 63.871094 63.914062 63.871094 62.992188 63.875 62.070312 C 63.875 61.359375 63.875 60.648438 63.875 59.9375 C 63.875 59.597656 63.875 59.257812 63.875 58.917969 C 63.875 58.445312 63.875 57.96875 63.871094 57.492188 L 63.875 57.070312 C 63.871094 56.371094 63.828125 55.722656 63.660156 55.046875 C 62.996094 55.046875 62.738281 55.210938 62.160156 55.539062 " fill-opacity="1" fill-rule="nonzero"/><path fill="#ffffff" d="M 38.664062 15.070312 C 39.429688 15.242188 39.949219 15.511719 40.617188 15.917969 L 40.960938 16.128906 C 41.199219 16.273438 41.4375 16.421875 41.671875 16.566406 C 42.035156 16.792969 42.398438 17.015625 42.761719 17.234375 C 44.539062 18.324219 44.539062 18.324219 44.964844 18.964844 C 45.019531 19.441406 45.019531 19.441406 45.027344 20.023438 L 45.039062 20.691406 L 45.046875 21.425781 C 45.050781 21.683594 45.054688 21.9375 45.058594 22.195312 C 45.074219 23.042969 45.082031 23.886719 45.089844 24.734375 L 45.09375 25.167969 C 45.105469 26.527344 45.117188 27.886719 45.125 29.242188 C 45.132812 30.980469 45.148438 32.714844 45.179688 34.453125 C 45.195312 35.671875 45.207031 36.894531 45.210938 38.113281 C 45.210938 38.84375 45.21875 39.574219 45.234375 40.300781 C 45.25 40.988281 45.253906 41.675781 45.25 42.359375 C 45.25 42.730469 45.261719 43.101562 45.273438 43.472656 C 45.261719 44.167969 45.226562 44.675781 44.964844 45.324219 C 44.222656 45.996094 43.441406 46.390625 42.535156 46.820312 C 42.167969 47.027344 41.800781 47.234375 41.433594 47.445312 C 41.066406 47.652344 40.695312 47.855469 40.328125 48.058594 C 38.703125 48.960938 37.085938 49.878906 35.480469 50.816406 L 34.949219 51.125 C 34.613281 51.320312 34.28125 51.519531 33.949219 51.722656 C 33.375 52.054688 33.375 52.054688 32.753906 52.34375 C 32.042969 52.703125 31.53125 53.007812 30.945312 53.550781 C 30.59375 54.476562 30.617188 55.382812 30.636719 56.359375 C 30.632812 56.644531 30.628906 56.925781 30.625 57.210938 C 30.617188 57.976562 30.621094 58.742188 30.632812 59.511719 C 30.640625 60.3125 30.632812 61.117188 30.632812 61.921875 C 30.628906 63.273438 30.636719 64.621094 30.648438 65.972656 C 30.664062 67.53125 30.664062 69.089844 30.652344 70.648438 C 30.644531 72.148438 30.648438 73.652344 30.65625 75.152344 C 30.660156 75.792969 30.660156 76.429688 30.652344 77.066406 C 30.648438 77.820312 30.65625 78.570312 30.667969 79.324219 C 30.671875 79.597656 30.671875 79.875 30.667969 80.148438 C 30.65625 80.980469 30.679688 81.734375 30.945312 82.527344 C 31.5625 83.136719 32.21875 83.484375 33.003906 83.835938 C 33.21875 83.960938 33.4375 84.089844 33.648438 84.226562 L 34.203125 84.546875 L 34.84375 84.917969 L 35.175781 85.109375 C 37.25 86.316406 39.3125 87.546875 41.363281 88.796875 C 43.316406 89.992188 45.289062 91.15625 47.269531 92.304688 C 48.207031 92.847656 49.144531 93.398438 50.066406 93.976562 L 50.464844 94.222656 C 50.761719 94.492188 50.761719 94.492188 50.898438 94.898438 L 50.949219 95.238281 C 49.757812 96 48.535156 96.707031 47.304688 97.40625 C 46.726562 97.734375 46.144531 98.066406 45.5625 98.398438 L 45.214844 98.597656 C 43.933594 99.328125 42.660156 100.0625 41.386719 100.804688 L 41.019531 101.015625 C 40.785156 101.152344 40.554688 101.296875 40.328125 101.449219 C 40 101.664062 40 101.664062 39.359375 101.96875 C 38.449219 101.96875 37.796875 101.703125 37.023438 101.261719 L 36.660156 101.046875 L 36.261719 100.816406 C 35.28125 100.242188 34.316406 99.640625 33.355469 99.03125 C 32.085938 98.230469 30.792969 97.476562 29.496094 96.722656 C 27.394531 95.496094 25.304688 94.246094 23.226562 92.972656 C 21.957031 92.199219 20.671875 91.449219 19.371094 90.726562 C 19.179688 90.613281 18.992188 90.496094 18.792969 90.378906 L 18.296875 90.089844 C 17.859375 89.632812 17.859375 89.632812 17.773438 89.277344 C 17.738281 88.816406 17.734375 88.363281 17.742188 87.898438 L 17.738281 87.363281 C 17.734375 86.765625 17.738281 86.171875 17.742188 85.578125 C 17.742188 85.148438 17.738281 84.722656 17.738281 84.296875 C 17.734375 83.140625 17.734375 81.980469 17.738281 80.820312 C 17.742188 79.609375 17.742188 78.398438 17.742188 77.1875 C 17.738281 75.152344 17.742188 73.121094 17.75 71.085938 C 17.753906 68.992188 17.753906 66.898438 17.75 64.804688 C 17.75 62.28125 17.75 59.761719 17.753906 57.238281 C 17.753906 56.273438 17.753906 55.3125 17.75 54.347656 C 17.75 53.214844 17.753906 52.078125 17.757812 50.945312 C 17.757812 50.527344 17.757812 50.109375 17.757812 49.695312 C 17.757812 49.125 17.757812 48.558594 17.761719 47.992188 L 17.757812 47.488281 C 17.765625 47.066406 17.777344 46.675781 17.859375 46.257812 C 18.328125 45.640625 18.894531 45.308594 19.566406 44.921875 L 20.144531 44.589844 L 20.769531 44.238281 L 21.417969 43.867188 C 23.179688 42.859375 24.957031 41.878906 26.734375 40.894531 C 27.964844 40.210938 29.191406 39.519531 30.410156 38.804688 L 30.804688 38.570312 C 31.375 38.253906 31.375 38.253906 31.878906 37.847656 C 31.898438 37.539062 31.902344 37.234375 31.898438 36.929688 L 31.898438 36.367188 L 31.890625 35.777344 L 31.890625 35.1875 C 31.886719 34.703125 31.882812 34.21875 31.878906 33.734375 C 29.929688 34.660156 28.0625 35.695312 26.203125 36.792969 C 24.773438 37.636719 23.332031 38.449219 21.878906 39.25 C 19.519531 40.550781 17.1875 41.894531 14.867188 43.269531 L 14.382812 43.464844 L 13.933594 43.828125 C 13.839844 44.394531 13.808594 44.851562 13.816406 45.417969 L 13.8125 45.914062 C 13.808594 46.46875 13.808594 47.019531 13.8125 47.570312 C 13.804688 49.042969 13.804688 50.515625 13.808594 51.984375 C 13.808594 53.113281 13.804688 54.238281 13.800781 55.367188 C 13.792969 57.503906 13.792969 59.640625 13.792969 61.777344 C 13.792969 64.90625 13.789062 68.035156 13.78125 71.167969 L 13.777344 72.554688 L 13.777344 73.242188 C 13.773438 74.582031 13.773438 75.921875 13.773438 77.261719 C 13.773438 78.097656 13.773438 78.9375 13.769531 79.773438 C 13.769531 80.160156 13.769531 80.542969 13.769531 80.929688 C 13.773438 83.03125 13.738281 85.109375 13.558594 87.199219 C 12.761719 86.941406 12.070312 86.648438 11.339844 86.226562 L 10.707031 85.863281 L 10.03125 85.472656 L 9.332031 85.070312 C 8.621094 84.660156 7.914062 84.246094 7.203125 83.835938 L 6.550781 83.457031 C 5.433594 82.808594 4.320312 82.160156 3.207031 81.507812 C 2.867188 81.304688 2.523438 81.105469 2.183594 80.90625 L 1.667969 80.605469 L 1.203125 80.335938 C 0.847656 80.097656 0.847656 80.097656 0.660156 79.722656 C 0.640625 79.167969 0.632812 78.621094 0.636719 78.066406 L 0.632812 77.539062 C 0.632812 76.953125 0.632812 76.367188 0.632812 75.78125 L 0.632812 74.527344 C 0.628906 73.386719 0.628906 72.246094 0.628906 71.109375 C 0.628906 70.160156 0.628906 69.207031 0.628906 68.257812 C 0.625 66.144531 0.625 64.03125 0.625 61.917969 L 0.625 61.148438 C 0.625 59.09375 0.625 57.035156 0.621094 54.976562 C 0.617188 52.863281 0.617188 50.75 0.617188 48.640625 C 0.617188 47.453125 0.617188 46.265625 0.613281 45.078125 C 0.613281 43.964844 0.613281 42.847656 0.613281 41.734375 C 0.613281 41.324219 0.613281 40.914062 0.613281 40.503906 C 0.613281 39.945312 0.613281 39.386719 0.613281 38.828125 L 0.609375 38.332031 C 0.617188 37.535156 0.636719 36.882812 1.035156 36.164062 C 1.46875 35.84375 1.46875 35.84375 2.015625 35.550781 L 2.632812 35.21875 L 2.960938 35.046875 C 3.421875 34.800781 3.882812 34.554688 4.339844 34.304688 C 4.574219 34.179688 4.8125 34.050781 5.046875 33.921875 C 6.164062 33.320312 7.257812 32.683594 8.347656 32.039062 C 9.855469 31.152344 11.375 30.285156 12.90625 29.433594 C 15.003906 28.265625 17.082031 27.058594 19.152344 25.84375 C 22.316406 23.996094 25.496094 22.1875 28.691406 20.40625 C 31.167969 19.023438 33.632812 17.628906 36.070312 16.183594 L 36.410156 15.984375 C 36.632812 15.851562 36.855469 15.710938 37.074219 15.5625 C 37.640625 15.191406 37.980469 15.035156 38.664062 15.070312 " fill-opacity="1" fill-rule="nonzero"/><path fill="#ffffff" d="M 49.453125 21.207031 C 50.117188 21.460938 50.738281 21.753906 51.367188 22.09375 L 51.941406 22.402344 L 52.5625 22.738281 L 53.210938 23.089844 C 53.890625 23.460938 54.570312 23.828125 55.25 24.199219 L 55.894531 24.550781 C 58.375 25.90625 60.820312 27.304688 63.234375 28.769531 C 64.773438 29.699219 66.332031 30.578125 67.898438 31.449219 C 69.808594 32.511719 71.714844 33.578125 73.570312 34.730469 C 74.117188 35.058594 74.117188 35.058594 74.710938 35.242188 C 75.429688 35.527344 75.847656 35.78125 76.375 36.351562 C 76.820312 37.652344 76.679688 39.136719 76.660156 40.496094 C 76.664062 40.921875 76.667969 41.351562 76.671875 41.78125 C 76.679688 42.945312 76.675781 44.109375 76.667969 45.273438 C 76.664062 46.492188 76.667969 47.710938 76.671875 48.929688 C 76.675781 51.105469 76.667969 53.285156 76.652344 55.460938 C 76.644531 57.433594 76.644531 59.40625 76.652344 61.378906 C 76.664062 63.917969 76.664062 66.453125 76.65625 68.992188 C 76.652344 69.960938 76.65625 70.929688 76.660156 71.898438 C 76.664062 73.039062 76.660156 74.175781 76.648438 75.316406 C 76.644531 75.738281 76.644531 76.15625 76.648438 76.574219 C 76.671875 79.160156 76.671875 79.160156 76.375 80.097656 C 75.886719 80.667969 75.5 80.929688 74.820312 81.230469 L 74.316406 81.40625 L 73.691406 81.769531 L 73.171875 82.054688 L 72.570312 82.382812 L 71.945312 82.726562 C 70.292969 83.632812 68.652344 84.5625 67.027344 85.519531 C 65.234375 86.574219 63.421875 87.589844 61.601562 88.589844 C 60.566406 89.160156 59.542969 89.742188 58.535156 90.355469 L 57.964844 90.699219 C 57.613281 90.917969 57.261719 91.136719 56.910156 91.355469 L 56.4375 91.644531 L 56.027344 91.902344 C 55.621094 92.0625 55.621094 92.0625 55.167969 92.027344 C 54.628906 91.855469 54.179688 91.628906 53.6875 91.347656 L 53.105469 91.023438 L 52.492188 90.671875 L 51.855469 90.308594 C 50.570312 89.582031 49.296875 88.839844 48.027344 88.089844 C 46.785156 87.351562 45.53125 86.644531 44.277344 85.9375 C 43.238281 85.355469 42.203125 84.769531 41.171875 84.175781 L 40.820312 83.976562 C 40.253906 83.652344 39.691406 83.328125 39.125 83.003906 L 38.496094 82.644531 L 37.949219 82.328125 C 37.378906 82.011719 36.808594 81.695312 36.234375 81.382812 L 35.671875 81.078125 L 35.246094 80.84375 C 35.207031 77.671875 35.175781 74.496094 35.160156 71.324219 C 35.148438 69.847656 35.136719 68.375 35.117188 66.902344 C 35.101562 65.617188 35.089844 64.332031 35.085938 63.046875 C 35.085938 62.367188 35.078125 61.6875 35.066406 61.007812 C 35.054688 60.25 35.054688 59.488281 35.054688 58.730469 L 35.035156 58.046875 C 35.042969 57.4375 35.066406 56.9375 35.246094 56.355469 C 35.746094 55.832031 36.28125 55.535156 36.929688 55.234375 L 37.496094 54.894531 L 38.003906 54.617188 C 38.285156 54.460938 38.285156 54.460938 38.574219 54.296875 L 39.171875 53.972656 C 40.511719 53.226562 41.851562 52.480469 43.167969 51.691406 C 44.539062 50.875 45.929688 50.101562 47.328125 49.332031 C 49.308594 48.238281 49.308594 48.238281 51.253906 47.089844 C 52.675781 46.21875 54.132812 45.410156 55.589844 44.601562 C 56.160156 44.285156 56.734375 43.960938 57.304688 43.640625 L 57.941406 43.289062 L 58.558594 42.941406 L 59.121094 42.628906 L 59.546875 42.332031 L 59.734375 41.773438 L 59.414062 41.613281 C 57.152344 40.472656 54.949219 39.207031 52.75 37.953125 L 52.269531 37.679688 C 51.96875 37.507812 51.671875 37.332031 51.375 37.160156 C 51.089844 36.992188 50.800781 36.832031 50.511719 36.671875 L 50.101562 36.4375 L 49.734375 36.234375 L 49.453125 35.976562 C 49.242188 35.214844 49.242188 34.476562 49.242188 33.6875 L 49.242188 33.285156 C 49.242188 32.847656 49.242188 32.410156 49.242188 31.972656 L 49.242188 31.058594 C 49.242188 30.421875 49.242188 29.789062 49.242188 29.152344 C 49.242188 28.335938 49.242188 27.515625 49.242188 26.699219 C 49.242188 26.074219 49.242188 25.445312 49.242188 24.816406 C 49.242188 24.515625 49.242188 24.214844 49.242188 23.914062 C 49.242188 23.492188 49.242188 23.074219 49.242188 22.65625 L 49.242188 21.929688 L 49.265625 21.394531 Z M 62.160156 55.539062 L 61.589844 55.863281 L 60.972656 56.214844 L 60.335938 56.574219 C 59.699219 56.9375 59.0625 57.300781 58.425781 57.664062 L 57.429688 58.230469 C 56.804688 58.585938 56.179688 58.945312 55.554688 59.304688 C 54.867188 59.699219 54.179688 60.089844 53.488281 60.480469 L 52.0625 61.292969 L 51.363281 61.691406 C 51.035156 61.875 50.710938 62.0625 50.382812 62.25 L 49.8125 62.574219 C 49.242188 62.914062 48.6875 63.261719 48.144531 63.644531 C 47.925781 64.085938 47.921875 64.375 47.90625 64.867188 L 47.890625 65.402344 C 47.867188 66.207031 47.851562 67.011719 47.839844 67.820312 C 47.832031 68.246094 47.820312 68.667969 47.808594 69.09375 C 47.785156 69.707031 47.773438 70.320312 47.769531 70.933594 L 47.742188 71.507812 C 47.742188 72.058594 47.765625 72.472656 47.957031 72.992188 C 48.519531 73.503906 49.140625 73.800781 49.828125 74.113281 C 50.042969 74.238281 50.257812 74.367188 50.472656 74.496094 C 51.085938 74.855469 51.699219 75.214844 52.316406 75.574219 L 52.644531 75.769531 C 52.960938 75.957031 53.28125 76.140625 53.597656 76.328125 L 54.164062 76.65625 C 54.683594 76.917969 55.046875 77.070312 55.621094 77.105469 C 56.140625 76.933594 56.140625 76.933594 56.660156 76.640625 L 57.253906 76.324219 C 58.234375 75.78125 59.203125 75.222656 60.167969 74.652344 L 61.324219 73.972656 L 61.859375 73.652344 C 62.160156 73.476562 62.464844 73.3125 62.773438 73.160156 C 63.171875 72.972656 63.171875 72.972656 63.660156 72.617188 C 63.886719 71.742188 63.875 70.859375 63.871094 69.960938 L 63.875 69.503906 C 63.875 69.011719 63.875 68.519531 63.875 68.027344 C 63.875 67.683594 63.875 67.339844 63.875 66.992188 C 63.875 66.273438 63.875 65.554688 63.871094 64.835938 C 63.871094 63.914062 63.871094 62.992188 63.875 62.070312 C 63.875 61.359375 63.875 60.648438 63.875 59.9375 C 63.875 59.597656 63.875 59.257812 63.875 58.917969 C 63.875 58.445312 63.875 57.96875 63.871094 57.492188 L 63.875 57.070312 C 63.871094 56.371094 63.828125 55.722656 63.660156 55.046875 C 62.996094 55.046875 62.738281 55.210938 62.160156 55.539062 " fill-opacity="1" fill-rule="nonzero"/><g transform="matrix(1, 0, 0, 1, 88, 31)"><g clip-path="url(#5710427ca6)"><g fill="#ffffff" fill-opacity="1"><g transform="translate(0.425717, 49.593934)"><g><path d="M 39.53125 -10.484375 L 39.53125 -7.5625 C 39.53125 -5.800781 39.613281 -4.359375 39.78125 -3.234375 C 39.957031 -2.109375 40.148438 -1.03125 40.359375 0 L 30.53125 0 C 30.269531 -0.78125 30.0625 -1.769531 29.90625 -2.96875 C 29.757812 -4.175781 29.6875 -5.664062 29.6875 -7.4375 L 29.6875 -9.703125 C 29.6875 -12.117188 29.03125 -13.875 27.71875 -14.96875 C 26.40625 -16.070312 24.671875 -16.625 22.515625 -16.625 L 13.65625 -16.625 L 13.65625 0 L 3.75 0 L 3.75 -43.015625 L 26.453125 -43.015625 C 31.203125 -43.015625 34.757812 -41.925781 37.125 -39.75 C 39.5 -37.570312 40.6875 -34.738281 40.6875 -31.25 C 40.6875 -28.226562 39.820312 -25.734375 38.09375 -23.765625 C 36.375 -21.804688 34.242188 -20.546875 31.703125 -19.984375 C 33.160156 -19.640625 34.484375 -19.113281 35.671875 -18.40625 C 36.859375 -17.695312 37.796875 -16.710938 38.484375 -15.453125 C 39.179688 -14.203125 39.53125 -12.546875 39.53125 -10.484375 Z M 24.25 -23.671875 C 26.5 -23.671875 28.085938 -24.195312 29.015625 -25.25 C 29.941406 -26.3125 30.40625 -27.835938 30.40625 -29.828125 C 30.40625 -31.628906 29.914062 -33.003906 28.9375 -33.953125 C 27.96875 -34.910156 26.40625 -35.390625 24.25 -35.390625 L 13.65625 -35.390625 L 13.65625 -23.671875 Z M 24.25 -23.671875 "/></g></g></g><g fill="#ffffff" fill-opacity="1"><g transform="translate(43.434078, 49.593934)"><g><path d="M 13.578125 0.84375 C 10.304688 0.84375 7.695312 -0.00390625 5.75 -1.703125 C 3.8125 -3.410156 2.84375 -5.710938 2.84375 -8.609375 C 2.84375 -10.328125 3.144531 -11.84375 3.75 -13.15625 C 4.351562 -14.476562 5.429688 -15.59375 6.984375 -16.5 C 8.535156 -17.40625 10.691406 -18.09375 13.453125 -18.5625 L 21.09375 -19.859375 C 22.601562 -20.117188 23.644531 -20.484375 24.21875 -20.953125 C 24.800781 -21.429688 25.09375 -22.144531 25.09375 -23.09375 C 25.09375 -24.21875 24.691406 -25.125 23.890625 -25.8125 C 23.097656 -26.5 21.625 -26.84375 19.46875 -26.84375 C 15.195312 -26.84375 13 -25.160156 12.875 -21.796875 L 3.5 -21.796875 C 3.625 -25.242188 5.054688 -28.046875 7.796875 -30.203125 C 10.535156 -32.359375 14.363281 -33.4375 19.28125 -33.4375 C 24.195312 -33.4375 27.859375 -32.457031 30.265625 -30.5 C 32.679688 -28.539062 33.890625 -25.832031 33.890625 -22.375 L 33.890625 -8.40625 C 33.890625 -6.894531 33.929688 -5.457031 34.015625 -4.09375 C 34.109375 -2.738281 34.238281 -1.375 34.40625 0 L 26.0625 0 C 25.894531 -1.070312 25.765625 -2.160156 25.671875 -3.265625 C 25.585938 -4.367188 25.546875 -5.585938 25.546875 -6.921875 C 24.816406 -4.679688 23.46875 -2.828125 21.5 -1.359375 C 19.539062 0.109375 16.898438 0.84375 13.578125 0.84375 Z M 16.8125 -5.6875 C 19.363281 -5.6875 21.378906 -6.550781 22.859375 -8.28125 C 24.347656 -10.007812 25.09375 -12.378906 25.09375 -15.390625 L 25.09375 -16.8125 C 24.28125 -16.257812 23.441406 -15.832031 22.578125 -15.53125 C 21.710938 -15.226562 20.785156 -14.96875 19.796875 -14.75 L 17.078125 -14.109375 C 15.347656 -13.671875 14.117188 -13.117188 13.390625 -12.453125 C 12.660156 -11.785156 12.296875 -10.828125 12.296875 -9.578125 C 12.296875 -8.285156 12.722656 -7.3125 13.578125 -6.65625 C 14.441406 -6.007812 15.519531 -5.6875 16.8125 -5.6875 Z M 16.8125 -5.6875 "/></g></g></g><g fill="#ffffff" fill-opacity="1"><g transform="translate(80.169019, 49.593934)"><g><path d="M 7.046875 0 L 7.046875 -25.09375 L 1.296875 -25.09375 L 1.296875 -29.6875 L 7.046875 -32.46875 L 7.046875 -35.453125 C 7.046875 -38.515625 7.882812 -40.914062 9.5625 -42.65625 C 11.25 -44.40625 14.097656 -45.28125 18.109375 -45.28125 L 26.390625 -45.28125 L 26.390625 -38.359375 L 15.265625 -38.359375 L 15.265625 -32.34375 L 24.640625 -32.34375 L 24.640625 -25.09375 L 16.625 -25.09375 L 16.625 0 Z M 7.046875 0 "/></g></g></g><g fill="#ffffff" fill-opacity="1"><g transform="translate(106.750189, 49.593934)"><g><path d="M 3.296875 -36.609375 L 3.296875 -43.015625 L 13.71875 -43.015625 L 13.71875 -36.609375 Z M 3.75 0 L 3.75 -32.34375 L 13.328125 -32.34375 L 13.328125 0 Z M 3.75 0 "/></g></g></g><g fill="#ffffff" fill-opacity="1"><g transform="translate(123.759538, 49.593934)"><g/></g></g><g fill="#ffffff" fill-opacity="1"><g transform="translate(140.122144, 49.593934)"><g><path d="M 37.328125 0 L 34.21875 -8.796875 L 14.9375 -8.796875 L 11.84375 0 L 1.9375 0 L 17.078125 -43.015625 L 32.078125 -43.015625 L 47.21875 0 Z M 17.59375 -16.359375 L 31.5625 -16.359375 L 24.578125 -36.21875 Z M 17.59375 -16.359375 "/></g></g></g><g fill="#ffffff" fill-opacity="1"><g transform="translate(188.045694, 49.593934)"><g><path d="M 27.8125 0 L 18.4375 -12.671875 L 13.328125 -7.765625 L 13.328125 0 L 3.75 0 L 3.75 -45.28125 L 13.328125 -45.28125 L 13.328125 -17.265625 C 14.492188 -18.910156 15.613281 -20.335938 16.6875 -21.546875 L 26.96875 -32.34375 L 38.421875 -32.34375 L 38.421875 -32.078125 L 24.515625 -18.5625 L 39.203125 0 Z M 27.8125 0 "/></g></g></g><g fill="#ffffff" fill-opacity="1"><g transform="translate(227.691059, 49.593934)"><g><path d="M 24.703125 -33.375 C 28.242188 -33.375 31.113281 -32.585938 33.3125 -31.015625 C 35.507812 -29.441406 37.113281 -27.347656 38.125 -24.734375 C 39.144531 -22.128906 39.65625 -19.296875 39.65625 -16.234375 C 39.65625 -13.128906 39.144531 -10.257812 38.125 -7.625 C 37.113281 -5 35.507812 -2.898438 33.3125 -1.328125 C 31.113281 0.242188 28.242188 1.03125 24.703125 1.03125 C 21.953125 1.03125 19.625 0.523438 17.71875 -0.484375 C 15.820312 -1.492188 14.316406 -2.882812 13.203125 -4.65625 L 13.203125 0 L 3.625 0 L 3.625 -45.28125 L 13.203125 -45.28125 L 13.203125 -27.625 C 14.316406 -29.4375 15.820312 -30.847656 17.71875 -31.859375 C 19.625 -32.867188 21.953125 -33.375 24.703125 -33.375 Z M 21.796875 -6.46875 C 24.859375 -6.46875 26.992188 -7.253906 28.203125 -8.828125 C 29.410156 -10.398438 30.015625 -12.847656 30.015625 -16.171875 C 30.015625 -19.535156 29.410156 -21.992188 28.203125 -23.546875 C 26.992188 -25.097656 24.859375 -25.875 21.796875 -25.875 C 18.773438 -25.875 16.585938 -25.085938 15.234375 -23.515625 C 13.878906 -21.941406 13.203125 -19.492188 13.203125 -16.171875 C 13.203125 -12.890625 13.878906 -10.453125 15.234375 -8.859375 C 16.585938 -7.265625 18.773438 -6.46875 21.796875 -6.46875 Z M 21.796875 -6.46875 "/></g></g></g><g fill="#ffffff" fill-opacity="1"><g transform="translate(269.082571, 49.593934)"><g><path d="M 13.578125 0.84375 C 10.304688 0.84375 7.695312 -0.00390625 5.75 -1.703125 C 3.8125 -3.410156 2.84375 -5.710938 2.84375 -8.609375 C 2.84375 -10.328125 3.144531 -11.84375 3.75 -13.15625 C 4.351562 -14.476562 5.429688 -15.59375 6.984375 -16.5 C 8.535156 -17.40625 10.691406 -18.09375 13.453125 -18.5625 L 21.09375 -19.859375 C 22.601562 -20.117188 23.644531 -20.484375 24.21875 -20.953125 C 24.800781 -21.429688 25.09375 -22.144531 25.09375 -23.09375 C 25.09375 -24.21875 24.691406 -25.125 23.890625 -25.8125 C 23.097656 -26.5 21.625 -26.84375 19.46875 -26.84375 C 15.195312 -26.84375 13 -25.160156 12.875 -21.796875 L 3.5 -21.796875 C 3.625 -25.242188 5.054688 -28.046875 7.796875 -30.203125 C 10.535156 -32.359375 14.363281 -33.4375 19.28125 -33.4375 C 24.195312 -33.4375 27.859375 -32.457031 30.265625 -30.5 C 32.679688 -28.539062 33.890625 -25.832031 33.890625 -22.375 L 33.890625 -8.40625 C 33.890625 -6.894531 33.929688 -5.457031 34.015625 -4.09375 C 34.109375 -2.738281 34.238281 -1.375 34.40625 0 L 26.0625 0 C 25.894531 -1.070312 25.765625 -2.160156 25.671875 -3.265625 C 25.585938 -4.367188 25.546875 -5.585938 25.546875 -6.921875 C 24.816406 -4.679688 23.46875 -2.828125 21.5 -1.359375 C 19.539062 0.109375 16.898438 0.84375 13.578125 0.84375 Z M 16.8125 -5.6875 C 19.363281 -5.6875 21.378906 -6.550781 22.859375 -8.28125 C 24.347656 -10.007812 25.09375 -12.378906 25.09375 -15.390625 L 25.09375 -16.8125 C 24.28125 -16.257812 23.441406 -15.832031 22.578125 -15.53125 C 21.710938 -15.226562 20.785156 -14.96875 19.796875 -14.75 L 17.078125 -14.109375 C 15.347656 -13.671875 14.117188 -13.117188 13.390625 -12.453125 C 12.660156 -11.785156 12.296875 -10.828125 12.296875 -9.578125 C 12.296875 -8.285156 12.722656 -7.3125 13.578125 -6.65625 C 14.441406 -6.007812 15.519531 -5.6875 16.8125 -5.6875 Z M 16.8125 -5.6875 "/></g></g></g><g fill="#ffffff" fill-opacity="1"><g transform="translate(305.94688, 49.593934)"><g><path d="M 22.96875 -32.859375 L 25.09375 -32.859375 L 25.09375 -23.546875 L 21.921875 -23.546875 C 18.734375 -23.546875 16.503906 -22.660156 15.234375 -20.890625 C 13.960938 -19.117188 13.328125 -16.40625 13.328125 -12.75 L 13.328125 0 L 3.75 0 L 3.75 -32.34375 L 13.0625 -32.34375 L 13.0625 -25.421875 C 13.84375 -27.703125 15.007812 -29.507812 16.5625 -30.84375 C 18.113281 -32.1875 20.25 -32.859375 22.96875 -32.859375 Z M 22.96875 -32.859375 "/></g></g></g></g></g></svg>