<svg xmlns="http://www.w3.org/2000/svg" xmlns:xlink="http://www.w3.org/1999/xlink" width="105" zoomAndPan="magnify" viewBox="0 0 78.75 93.749997" height="125" preserveAspectRatio="xMidYMid meet" version="1.0"><path fill="#ffffff" d="M 38.582031 4.792969 C 39.347656 4.964844 39.863281 5.234375 40.53125 5.644531 L 40.875 5.851562 C 41.109375 5.996094 41.347656 6.140625 41.582031 6.289062 C 41.945312 6.511719 42.308594 6.734375 42.671875 6.953125 C 44.441406 8.039062 44.441406 8.039062 44.871094 8.679688 C 44.921875 9.15625 44.921875 9.15625 44.929688 9.738281 L 44.945312 10.402344 L 44.953125 11.136719 C 44.953125 11.390625 44.960938 11.648438 44.964844 11.90625 C 44.976562 12.75 44.984375 13.59375 44.992188 14.4375 L 44.996094 14.871094 C 45.007812 16.226562 45.019531 17.582031 45.027344 18.9375 C 45.035156 20.671875 45.054688 22.402344 45.082031 24.132812 C 45.101562 25.351562 45.109375 26.570312 45.113281 27.789062 C 45.117188 28.519531 45.121094 29.246094 45.136719 29.972656 C 45.152344 30.65625 45.15625 31.339844 45.152344 32.027344 C 45.152344 32.398438 45.164062 32.765625 45.175781 33.136719 C 45.164062 33.832031 45.128906 34.339844 44.871094 34.984375 C 44.128906 35.652344 43.351562 36.050781 42.445312 36.476562 C 42.078125 36.683594 41.710938 36.890625 41.34375 37.101562 C 40.976562 37.304688 40.609375 37.507812 40.242188 37.710938 C 38.621094 38.613281 37.007812 39.53125 35.402344 40.464844 L 34.871094 40.773438 C 34.539062 40.96875 34.207031 41.167969 33.878906 41.367188 C 33.304688 41.699219 33.304688 41.699219 32.683594 41.988281 C 31.972656 42.347656 31.464844 42.652344 30.878906 43.191406 C 30.527344 44.117188 30.550781 45.019531 30.570312 45.996094 C 30.570312 46.277344 30.566406 46.5625 30.558594 46.84375 C 30.550781 47.609375 30.558594 48.375 30.566406 49.140625 C 30.574219 49.941406 30.570312 50.742188 30.566406 51.546875 C 30.5625 52.894531 30.570312 54.238281 30.582031 55.585938 C 30.597656 57.140625 30.597656 58.699219 30.589844 60.253906 C 30.578125 61.75 30.582031 63.25 30.589844 64.75 C 30.59375 65.386719 30.59375 66.023438 30.589844 66.660156 C 30.585938 67.410156 30.589844 68.160156 30.601562 68.910156 C 30.605469 69.183594 30.605469 69.460938 30.601562 69.734375 C 30.589844 70.566406 30.613281 71.316406 30.878906 72.105469 C 31.496094 72.714844 32.148438 73.0625 32.929688 73.414062 C 33.148438 73.539062 33.363281 73.667969 33.578125 73.800781 L 34.132812 74.121094 L 34.769531 74.492188 L 35.097656 74.683594 C 37.171875 75.886719 39.226562 77.117188 41.273438 78.367188 C 43.222656 79.558594 45.191406 80.714844 47.167969 81.863281 C 48.105469 82.40625 49.039062 82.953125 49.957031 83.53125 L 50.355469 83.78125 C 50.652344 84.046875 50.652344 84.046875 50.789062 84.453125 L 50.839844 84.792969 C 49.648438 85.550781 48.433594 86.257812 47.203125 86.953125 C 46.625 87.285156 46.042969 87.613281 45.464844 87.945312 L 45.117188 88.144531 C 43.839844 88.871094 42.570312 89.605469 41.300781 90.34375 L 40.929688 90.554688 C 40.695312 90.691406 40.46875 90.835938 40.242188 90.988281 C 39.914062 91.203125 39.914062 91.203125 39.273438 91.507812 C 38.367188 91.507812 37.714844 91.242188 36.945312 90.804688 L 36.582031 90.585938 L 36.183594 90.359375 C 35.203125 89.785156 34.242188 89.183594 33.285156 88.574219 C 32.019531 87.777344 30.726562 87.027344 29.433594 86.273438 C 27.335938 85.050781 25.25 83.800781 23.175781 82.53125 C 21.910156 81.757812 20.628906 81.011719 19.332031 80.289062 C 19.140625 80.175781 18.949219 80.058594 18.753906 79.941406 L 18.257812 79.65625 C 17.820312 79.195312 17.820312 79.195312 17.734375 78.84375 C 17.699219 78.382812 17.699219 77.929688 17.703125 77.46875 L 17.699219 76.933594 C 17.695312 76.339844 17.699219 75.742188 17.703125 75.148438 C 17.703125 74.726562 17.699219 74.300781 17.699219 73.875 C 17.695312 72.71875 17.699219 71.5625 17.703125 70.40625 C 17.707031 69.195312 17.703125 67.988281 17.703125 66.78125 C 17.703125 64.75 17.703125 62.71875 17.710938 60.691406 C 17.714844 58.601562 17.714844 56.511719 17.714844 54.421875 C 17.710938 51.90625 17.710938 49.390625 17.714844 46.871094 C 17.714844 45.910156 17.714844 44.949219 17.714844 43.988281 C 17.710938 42.855469 17.714844 41.726562 17.71875 40.59375 C 17.722656 40.175781 17.722656 39.761719 17.71875 39.34375 C 17.71875 38.777344 17.722656 38.210938 17.726562 37.644531 L 17.71875 37.144531 C 17.726562 36.722656 17.738281 36.332031 17.820312 35.917969 C 18.289062 35.296875 18.855469 34.96875 19.523438 34.585938 L 20.101562 34.253906 L 20.722656 33.898438 L 21.371094 33.53125 C 23.132812 32.527344 24.902344 31.542969 26.675781 30.566406 C 27.90625 29.882812 29.128906 29.191406 30.34375 28.480469 L 30.738281 28.246094 C 31.308594 27.929688 31.308594 27.929688 31.8125 27.523438 C 31.828125 27.21875 31.832031 26.910156 31.832031 26.605469 L 31.828125 26.046875 L 31.820312 24.867188 C 31.820312 24.386719 31.816406 23.902344 31.8125 23.417969 C 29.863281 24.339844 28 25.378906 26.144531 26.472656 C 24.71875 27.3125 23.28125 28.121094 21.832031 28.921875 C 19.476562 30.21875 17.148438 31.5625 14.835938 32.933594 L 14.351562 33.128906 L 13.902344 33.492188 C 13.808594 34.054688 13.777344 34.511719 13.785156 35.078125 L 13.78125 35.574219 C 13.777344 36.125 13.78125 36.675781 13.785156 37.226562 C 13.777344 38.695312 13.773438 40.164062 13.777344 41.628906 C 13.777344 42.753906 13.773438 43.878906 13.769531 45.003906 C 13.765625 47.136719 13.761719 49.269531 13.765625 51.402344 C 13.765625 54.527344 13.757812 57.648438 13.75 60.769531 L 13.75 62.15625 L 13.746094 62.839844 C 13.746094 64.179688 13.742188 65.515625 13.742188 66.851562 C 13.742188 67.6875 13.742188 68.523438 13.742188 69.359375 C 13.742188 69.742188 13.742188 70.128906 13.742188 70.515625 C 13.742188 72.609375 13.707031 74.683594 13.53125 76.769531 C 12.734375 76.515625 12.042969 76.21875 11.316406 75.800781 L 10.683594 75.4375 L 10.007812 75.046875 L 9.3125 74.644531 C 8.601562 74.234375 7.894531 73.824219 7.1875 73.414062 L 6.535156 73.035156 C 5.421875 72.390625 4.308594 71.742188 3.199219 71.089844 C 2.859375 70.890625 2.519531 70.691406 2.175781 70.492188 L 1.664062 70.191406 L 1.199219 69.921875 C 0.84375 69.683594 0.84375 69.683594 0.660156 69.308594 C 0.640625 68.757812 0.632812 68.207031 0.632812 67.65625 L 0.632812 67.128906 C 0.632812 66.546875 0.632812 65.960938 0.632812 65.375 L 0.628906 64.125 C 0.628906 62.988281 0.628906 61.851562 0.628906 60.714844 C 0.628906 59.765625 0.628906 58.816406 0.625 57.867188 C 0.625 55.761719 0.625 53.652344 0.625 51.542969 L 0.625 50.777344 C 0.625 48.722656 0.621094 46.667969 0.621094 44.613281 C 0.617188 42.507812 0.617188 40.398438 0.617188 38.292969 C 0.617188 37.109375 0.617188 35.925781 0.613281 34.742188 C 0.613281 33.628906 0.613281 32.515625 0.613281 31.398438 C 0.613281 30.992188 0.613281 30.582031 0.613281 30.171875 C 0.609375 29.617188 0.613281 29.058594 0.613281 28.5 L 0.609375 28.007812 C 0.613281 27.210938 0.632812 26.558594 1.03125 25.84375 C 1.464844 25.523438 1.464844 25.523438 2.011719 25.230469 L 2.628906 24.898438 L 2.957031 24.726562 C 3.417969 24.484375 3.871094 24.238281 4.328125 23.988281 C 4.566406 23.863281 4.800781 23.734375 5.035156 23.605469 C 6.148438 23.007812 7.242188 22.371094 8.332031 21.726562 C 9.835938 20.84375 11.351562 19.976562 12.878906 19.128906 C 14.972656 17.960938 17.042969 16.757812 19.113281 15.546875 C 22.265625 13.703125 25.441406 11.898438 28.632812 10.117188 C 31.101562 8.738281 33.558594 7.347656 35.992188 5.90625 L 36.332031 5.707031 C 36.554688 5.574219 36.777344 5.433594 36.992188 5.285156 C 37.5625 4.917969 37.898438 4.761719 38.582031 4.792969 " fill-opacity="1" fill-rule="nonzero"/><path fill="#ffffff" d="M 49.347656 10.917969 C 50.011719 11.171875 50.628906 11.464844 51.253906 11.800781 L 51.832031 12.113281 L 52.449219 12.445312 L 53.097656 12.796875 C 53.777344 13.164062 54.453125 13.535156 55.128906 13.90625 L 55.773438 14.257812 C 58.25 15.609375 60.691406 17.003906 63.101562 18.464844 C 64.632812 19.390625 66.1875 20.269531 67.753906 21.140625 C 69.65625 22.199219 71.5625 23.265625 73.414062 24.414062 C 73.960938 24.738281 73.960938 24.738281 74.550781 24.925781 C 75.265625 25.207031 75.6875 25.460938 76.210938 26.03125 C 76.65625 27.328125 76.515625 28.8125 76.496094 30.164062 C 76.5 30.59375 76.503906 31.019531 76.507812 31.449219 C 76.515625 32.609375 76.511719 33.773438 76.503906 34.933594 C 76.5 36.148438 76.503906 37.367188 76.507812 38.582031 C 76.507812 40.753906 76.5 42.925781 76.488281 45.097656 C 76.480469 47.066406 76.480469 49.035156 76.488281 51.003906 C 76.5 53.535156 76.5 56.070312 76.492188 58.601562 C 76.488281 59.566406 76.492188 60.535156 76.496094 61.5 C 76.5 62.636719 76.496094 63.777344 76.484375 64.914062 C 76.480469 65.332031 76.480469 65.75 76.484375 66.167969 C 76.507812 68.75 76.507812 68.75 76.210938 69.683594 C 75.726562 70.25 75.339844 70.511719 74.660156 70.8125 L 74.160156 70.988281 L 73.535156 71.351562 L 73.011719 71.636719 L 72.414062 71.964844 L 71.792969 72.304688 C 70.140625 73.210938 68.503906 74.136719 66.882812 75.089844 C 65.09375 76.144531 63.289062 77.15625 61.46875 78.15625 C 60.4375 78.726562 59.414062 79.304688 58.410156 79.917969 L 57.839844 80.261719 C 57.488281 80.480469 57.136719 80.695312 56.789062 80.917969 L 56.316406 81.207031 L 55.90625 81.464844 C 55.503906 81.621094 55.503906 81.621094 55.050781 81.585938 C 54.511719 81.414062 54.0625 81.1875 53.570312 80.910156 L 52.992188 80.585938 L 52.378906 80.234375 L 51.742188 79.875 C 50.464844 79.148438 49.191406 78.40625 47.925781 77.65625 C 46.6875 76.921875 45.433594 76.21875 44.179688 75.511719 C 43.144531 74.929688 42.113281 74.34375 41.082031 73.753906 L 40.730469 73.554688 C 40.167969 73.230469 39.605469 72.90625 39.042969 72.582031 L 37.867188 71.910156 C 37.296875 71.589844 36.726562 71.277344 36.15625 70.964844 L 35.597656 70.660156 L 35.171875 70.429688 C 35.128906 67.261719 35.101562 64.09375 35.082031 60.925781 C 35.074219 59.457031 35.0625 57.988281 35.042969 56.515625 C 35.027344 55.234375 35.015625 53.953125 35.011719 52.671875 C 35.011719 51.992188 35.003906 51.3125 34.992188 50.632812 C 34.980469 49.875 34.980469 49.117188 34.980469 48.359375 L 34.960938 47.679688 C 34.96875 47.070312 34.988281 46.570312 35.171875 45.992188 C 35.667969 45.46875 36.203125 45.175781 36.847656 44.871094 L 37.417969 44.535156 L 37.921875 44.257812 C 38.203125 44.097656 38.203125 44.097656 38.492188 43.9375 L 39.085938 43.613281 C 40.425781 42.871094 41.761719 42.125 43.074219 41.339844 C 44.441406 40.523438 45.832031 39.753906 47.226562 38.984375 C 49.199219 37.894531 49.199219 37.894531 51.144531 36.746094 C 52.5625 35.878906 54.015625 35.070312 55.46875 34.261719 C 56.042969 33.945312 56.613281 33.625 57.183594 33.304688 L 57.816406 32.953125 L 58.433594 32.605469 L 58.992188 32.292969 L 59.421875 32 L 59.609375 31.441406 L 59.285156 31.28125 C 57.03125 30.144531 54.828125 28.878906 52.636719 27.628906 L 52.15625 27.355469 C 51.859375 27.183594 51.558594 27.011719 51.261719 26.835938 C 50.980469 26.671875 50.691406 26.507812 50.402344 26.351562 L 49.992188 26.117188 L 49.628906 25.914062 L 49.347656 25.65625 C 49.136719 24.894531 49.136719 24.15625 49.136719 23.371094 L 49.136719 22.96875 C 49.136719 22.53125 49.136719 22.097656 49.136719 21.660156 L 49.136719 20.75 C 49.136719 20.117188 49.136719 19.480469 49.136719 18.847656 C 49.136719 18.03125 49.136719 17.214844 49.136719 16.398438 C 49.136719 15.773438 49.136719 15.148438 49.136719 14.523438 C 49.136719 14.222656 49.136719 13.921875 49.136719 13.621094 C 49.136719 13.199219 49.136719 12.78125 49.136719 12.363281 L 49.136719 11.640625 L 49.160156 11.105469 Z M 62.027344 45.175781 L 61.457031 45.5 L 60.84375 45.851562 L 60.207031 46.210938 C 59.570312 46.570312 58.9375 46.933594 58.300781 47.296875 L 57.304688 47.863281 C 56.679688 48.21875 56.058594 48.574219 55.433594 48.933594 C 54.75 49.328125 54.0625 49.71875 53.375 50.109375 L 51.949219 50.921875 L 51.253906 51.316406 C 50.925781 51.5 50.601562 51.6875 50.273438 51.871094 L 49.707031 52.195312 C 49.136719 52.535156 48.582031 52.882812 48.042969 53.265625 C 47.820312 53.707031 47.820312 53.996094 47.804688 54.484375 L 47.785156 55.019531 C 47.765625 55.820312 47.75 56.625 47.738281 57.429688 C 47.730469 57.855469 47.71875 58.28125 47.703125 58.703125 C 47.683594 59.316406 47.671875 59.925781 47.667969 60.539062 L 47.640625 61.109375 C 47.640625 61.664062 47.664062 62.074219 47.855469 62.59375 C 48.417969 63.105469 49.035156 63.398438 49.71875 63.710938 C 49.9375 63.835938 50.152344 63.964844 50.363281 64.09375 C 50.976562 64.453125 51.589844 64.8125 52.203125 65.167969 L 52.53125 65.363281 C 52.847656 65.550781 53.167969 65.734375 53.484375 65.917969 L 54.050781 66.25 C 54.566406 66.507812 54.929688 66.664062 55.503906 66.695312 C 56.019531 66.523438 56.019531 66.523438 56.539062 66.230469 L 57.132812 65.917969 C 58.109375 65.375 59.078125 64.816406 60.039062 64.25 L 61.191406 63.570312 L 61.730469 63.25 C 62.027344 63.078125 62.332031 62.914062 62.640625 62.757812 C 63.039062 62.574219 63.039062 62.574219 63.523438 62.21875 C 63.75 61.347656 63.738281 60.464844 63.734375 59.566406 L 63.738281 59.113281 C 63.738281 58.621094 63.738281 58.128906 63.738281 57.636719 C 63.738281 57.292969 63.738281 56.949219 63.738281 56.609375 C 63.738281 55.890625 63.738281 55.171875 63.734375 54.453125 C 63.734375 53.53125 63.734375 52.613281 63.738281 51.691406 C 63.738281 50.984375 63.738281 50.277344 63.738281 49.566406 C 63.738281 49.226562 63.738281 48.886719 63.738281 48.550781 C 63.738281 48.074219 63.738281 47.601562 63.734375 47.128906 L 63.738281 46.703125 C 63.734375 46.007812 63.691406 45.363281 63.523438 44.683594 C 62.859375 44.683594 62.601562 44.851562 62.027344 45.175781 " fill-opacity="1" fill-rule="nonzero"/><path fill="#ffffff" d="M 38.582031 4.792969 C 39.347656 4.964844 39.863281 5.234375 40.53125 5.644531 L 40.875 5.851562 C 41.109375 5.996094 41.347656 6.140625 41.582031 6.289062 C 41.945312 6.511719 42.308594 6.734375 42.671875 6.953125 C 44.441406 8.039062 44.441406 8.039062 44.871094 8.679688 C 44.921875 9.15625 44.921875 9.15625 44.929688 9.738281 L 44.945312 10.402344 L 44.953125 11.136719 C 44.953125 11.390625 44.960938 11.648438 44.964844 11.90625 C 44.976562 12.75 44.984375 13.59375 44.992188 14.4375 L 44.996094 14.871094 C 45.007812 16.226562 45.019531 17.582031 45.027344 18.9375 C 45.035156 20.671875 45.054688 22.402344 45.082031 24.132812 C 45.101562 25.351562 45.109375 26.570312 45.113281 27.789062 C 45.117188 28.519531 45.121094 29.246094 45.136719 29.972656 C 45.152344 30.65625 45.15625 31.339844 45.152344 32.027344 C 45.152344 32.398438 45.164062 32.765625 45.175781 33.136719 C 45.164062 33.832031 45.128906 34.339844 44.871094 34.984375 C 44.128906 35.652344 43.351562 36.050781 42.445312 36.476562 C 42.078125 36.683594 41.710938 36.890625 41.34375 37.101562 C 40.976562 37.304688 40.609375 37.507812 40.242188 37.710938 C 38.621094 38.613281 37.007812 39.53125 35.402344 40.464844 L 34.871094 40.773438 C 34.539062 40.96875 34.207031 41.167969 33.878906 41.367188 C 33.304688 41.699219 33.304688 41.699219 32.683594 41.988281 C 31.972656 42.347656 31.464844 42.652344 30.878906 43.191406 C 30.527344 44.117188 30.550781 45.019531 30.570312 45.996094 C 30.570312 46.277344 30.566406 46.5625 30.558594 46.84375 C 30.550781 47.609375 30.558594 48.375 30.566406 49.140625 C 30.574219 49.941406 30.570312 50.742188 30.566406 51.546875 C 30.5625 52.894531 30.570312 54.238281 30.582031 55.585938 C 30.597656 57.140625 30.597656 58.699219 30.589844 60.253906 C 30.578125 61.75 30.582031 63.25 30.589844 64.75 C 30.59375 65.386719 30.59375 66.023438 30.589844 66.660156 C 30.585938 67.410156 30.589844 68.160156 30.601562 68.910156 C 30.605469 69.183594 30.605469 69.460938 30.601562 69.734375 C 30.589844 70.566406 30.613281 71.316406 30.878906 72.105469 C 31.496094 72.714844 32.148438 73.0625 32.929688 73.414062 C 33.148438 73.539062 33.363281 73.667969 33.578125 73.800781 L 34.132812 74.121094 L 34.769531 74.492188 L 35.097656 74.683594 C 37.171875 75.886719 39.226562 77.117188 41.273438 78.367188 C 43.222656 79.558594 45.191406 80.714844 47.167969 81.863281 C 48.105469 82.40625 49.039062 82.953125 49.957031 83.53125 L 50.355469 83.78125 C 50.652344 84.046875 50.652344 84.046875 50.789062 84.453125 L 50.839844 84.792969 C 49.648438 85.550781 48.433594 86.257812 47.203125 86.953125 C 46.625 87.285156 46.042969 87.613281 45.464844 87.945312 L 45.117188 88.144531 C 43.839844 88.871094 42.570312 89.605469 41.300781 90.34375 L 40.929688 90.554688 C 40.695312 90.691406 40.46875 90.835938 40.242188 90.988281 C 39.914062 91.203125 39.914062 91.203125 39.273438 91.507812 C 38.367188 91.507812 37.714844 91.242188 36.945312 90.804688 L 36.582031 90.585938 L 36.183594 90.359375 C 35.203125 89.785156 34.242188 89.183594 33.285156 88.574219 C 32.019531 87.777344 30.726562 87.027344 29.433594 86.273438 C 27.335938 85.050781 25.25 83.800781 23.175781 82.53125 C 21.910156 81.757812 20.628906 81.011719 19.332031 80.289062 C 19.140625 80.175781 18.949219 80.058594 18.753906 79.941406 L 18.257812 79.65625 C 17.820312 79.195312 17.820312 79.195312 17.734375 78.84375 C 17.699219 78.382812 17.699219 77.929688 17.703125 77.46875 L 17.699219 76.933594 C 17.695312 76.339844 17.699219 75.742188 17.703125 75.148438 C 17.703125 74.726562 17.699219 74.300781 17.699219 73.875 C 17.695312 72.71875 17.699219 71.5625 17.703125 70.40625 C 17.707031 69.195312 17.703125 67.988281 17.703125 66.78125 C 17.703125 64.75 17.703125 62.71875 17.710938 60.691406 C 17.714844 58.601562 17.714844 56.511719 17.714844 54.421875 C 17.710938 51.90625 17.710938 49.390625 17.714844 46.871094 C 17.714844 45.910156 17.714844 44.949219 17.714844 43.988281 C 17.710938 42.855469 17.714844 41.726562 17.71875 40.59375 C 17.722656 40.175781 17.722656 39.761719 17.71875 39.34375 C 17.71875 38.777344 17.722656 38.210938 17.726562 37.644531 L 17.71875 37.144531 C 17.726562 36.722656 17.738281 36.332031 17.820312 35.917969 C 18.289062 35.296875 18.855469 34.96875 19.523438 34.585938 L 20.101562 34.253906 L 20.722656 33.898438 L 21.371094 33.53125 C 23.132812 32.527344 24.902344 31.542969 26.675781 30.566406 C 27.90625 29.882812 29.128906 29.191406 30.34375 28.480469 L 30.738281 28.246094 C 31.308594 27.929688 31.308594 27.929688 31.8125 27.523438 C 31.828125 27.21875 31.832031 26.910156 31.832031 26.605469 L 31.828125 26.046875 L 31.820312 24.867188 C 31.820312 24.386719 31.816406 23.902344 31.8125 23.417969 C 29.863281 24.339844 28 25.378906 26.144531 26.472656 C 24.71875 27.3125 23.28125 28.121094 21.832031 28.921875 C 19.476562 30.21875 17.148438 31.5625 14.835938 32.933594 L 14.351562 33.128906 L 13.902344 33.492188 C 13.808594 34.054688 13.777344 34.511719 13.785156 35.078125 L 13.78125 35.574219 C 13.777344 36.125 13.78125 36.675781 13.785156 37.226562 C 13.777344 38.695312 13.773438 40.164062 13.777344 41.628906 C 13.777344 42.753906 13.773438 43.878906 13.769531 45.003906 C 13.765625 47.136719 13.761719 49.269531 13.765625 51.402344 C 13.765625 54.527344 13.757812 57.648438 13.75 60.769531 L 13.75 62.15625 L 13.746094 62.839844 C 13.746094 64.179688 13.742188 65.515625 13.742188 66.851562 C 13.742188 67.6875 13.742188 68.523438 13.742188 69.359375 C 13.742188 69.742188 13.742188 70.128906 13.742188 70.515625 C 13.742188 72.609375 13.707031 74.683594 13.53125 76.769531 C 12.734375 76.515625 12.042969 76.21875 11.316406 75.800781 L 10.683594 75.4375 L 10.007812 75.046875 L 9.3125 74.644531 C 8.601562 74.234375 7.894531 73.824219 7.1875 73.414062 L 6.535156 73.035156 C 5.421875 72.390625 4.308594 71.742188 3.199219 71.089844 C 2.859375 70.890625 2.519531 70.691406 2.175781 70.492188 L 1.664062 70.191406 L 1.199219 69.921875 C 0.84375 69.683594 0.84375 69.683594 0.660156 69.308594 C 0.640625 68.757812 0.632812 68.207031 0.632812 67.65625 L 0.632812 67.128906 C 0.632812 66.546875 0.632812 65.960938 0.632812 65.375 L 0.628906 64.125 C 0.628906 62.988281 0.628906 61.851562 0.628906 60.714844 C 0.628906 59.765625 0.628906 58.816406 0.625 57.867188 C 0.625 55.761719 0.625 53.652344 0.625 51.542969 L 0.625 50.777344 C 0.625 48.722656 0.621094 46.667969 0.621094 44.613281 C 0.617188 42.507812 0.617188 40.398438 0.617188 38.292969 C 0.617188 37.109375 0.617188 35.925781 0.613281 34.742188 C 0.613281 33.628906 0.613281 32.515625 0.613281 31.398438 C 0.613281 30.992188 0.613281 30.582031 0.613281 30.171875 C 0.609375 29.617188 0.613281 29.058594 0.613281 28.5 L 0.609375 28.007812 C 0.613281 27.210938 0.632812 26.558594 1.03125 25.84375 C 1.464844 25.523438 1.464844 25.523438 2.011719 25.230469 L 2.628906 24.898438 L 2.957031 24.726562 C 3.417969 24.484375 3.871094 24.238281 4.328125 23.988281 C 4.566406 23.863281 4.800781 23.734375 5.035156 23.605469 C 6.148438 23.007812 7.242188 22.371094 8.332031 21.726562 C 9.835938 20.84375 11.351562 19.976562 12.878906 19.128906 C 14.972656 17.960938 17.042969 16.757812 19.113281 15.546875 C 22.265625 13.703125 25.441406 11.898438 28.632812 10.117188 C 31.101562 8.738281 33.558594 7.347656 35.992188 5.90625 L 36.332031 5.707031 C 36.554688 5.574219 36.777344 5.433594 36.992188 5.285156 C 37.5625 4.917969 37.898438 4.761719 38.582031 4.792969 " fill-opacity="1" fill-rule="nonzero"/><path fill="#ffffff" d="M 49.347656 10.917969 C 50.011719 11.171875 50.628906 11.464844 51.253906 11.800781 L 51.832031 12.113281 L 52.449219 12.445312 L 53.097656 12.796875 C 53.777344 13.164062 54.453125 13.535156 55.128906 13.90625 L 55.773438 14.257812 C 58.25 15.609375 60.691406 17.003906 63.101562 18.464844 C 64.632812 19.390625 66.1875 20.269531 67.753906 21.140625 C 69.65625 22.199219 71.5625 23.265625 73.414062 24.414062 C 73.960938 24.738281 73.960938 24.738281 74.550781 24.925781 C 75.265625 25.207031 75.6875 25.460938 76.210938 26.03125 C 76.65625 27.328125 76.515625 28.8125 76.496094 30.164062 C 76.5 30.59375 76.503906 31.019531 76.507812 31.449219 C 76.515625 32.609375 76.511719 33.773438 76.503906 34.933594 C 76.5 36.148438 76.503906 37.367188 76.507812 38.582031 C 76.507812 40.753906 76.5 42.925781 76.488281 45.097656 C 76.480469 47.066406 76.480469 49.035156 76.488281 51.003906 C 76.5 53.535156 76.5 56.070312 76.492188 58.601562 C 76.488281 59.566406 76.492188 60.535156 76.496094 61.5 C 76.5 62.636719 76.496094 63.777344 76.484375 64.914062 C 76.480469 65.332031 76.480469 65.75 76.484375 66.167969 C 76.507812 68.75 76.507812 68.75 76.210938 69.683594 C 75.726562 70.25 75.339844 70.511719 74.660156 70.8125 L 74.160156 70.988281 L 73.535156 71.351562 L 73.011719 71.636719 L 72.414062 71.964844 L 71.792969 72.304688 C 70.140625 73.210938 68.503906 74.136719 66.882812 75.089844 C 65.09375 76.144531 63.289062 77.15625 61.46875 78.15625 C 60.4375 78.726562 59.414062 79.304688 58.410156 79.917969 L 57.839844 80.261719 C 57.488281 80.480469 57.136719 80.695312 56.789062 80.917969 L 56.316406 81.207031 L 55.90625 81.464844 C 55.503906 81.621094 55.503906 81.621094 55.050781 81.585938 C 54.511719 81.414062 54.0625 81.1875 53.570312 80.910156 L 52.992188 80.585938 L 52.378906 80.234375 L 51.742188 79.875 C 50.464844 79.148438 49.191406 78.40625 47.925781 77.65625 C 46.6875 76.921875 45.433594 76.21875 44.179688 75.511719 C 43.144531 74.929688 42.113281 74.34375 41.082031 73.753906 L 40.730469 73.554688 C 40.167969 73.230469 39.605469 72.90625 39.042969 72.582031 L 37.867188 71.910156 C 37.296875 71.589844 36.726562 71.277344 36.15625 70.964844 L 35.597656 70.660156 L 35.171875 70.429688 C 35.128906 67.261719 35.101562 64.09375 35.082031 60.925781 C 35.074219 59.457031 35.0625 57.988281 35.042969 56.515625 C 35.027344 55.234375 35.015625 53.953125 35.011719 52.671875 C 35.011719 51.992188 35.003906 51.3125 34.992188 50.632812 C 34.980469 49.875 34.980469 49.117188 34.980469 48.359375 L 34.960938 47.679688 C 34.96875 47.070312 34.988281 46.570312 35.171875 45.992188 C 35.667969 45.46875 36.203125 45.175781 36.847656 44.871094 L 37.417969 44.535156 L 37.921875 44.257812 C 38.203125 44.097656 38.203125 44.097656 38.492188 43.9375 L 39.085938 43.613281 C 40.425781 42.871094 41.761719 42.125 43.074219 41.339844 C 44.441406 40.523438 45.832031 39.753906 47.226562 38.984375 C 49.199219 37.894531 49.199219 37.894531 51.144531 36.746094 C 52.5625 35.878906 54.015625 35.070312 55.46875 34.261719 C 56.042969 33.945312 56.613281 33.625 57.183594 33.304688 L 57.816406 32.953125 L 58.433594 32.605469 L 58.992188 32.292969 L 59.421875 32 L 59.609375 31.441406 L 59.285156 31.28125 C 57.03125 30.144531 54.828125 28.878906 52.636719 27.628906 L 52.15625 27.355469 C 51.859375 27.183594 51.558594 27.011719 51.261719 26.835938 C 50.980469 26.671875 50.691406 26.507812 50.402344 26.351562 L 49.992188 26.117188 L 49.628906 25.914062 L 49.347656 25.65625 C 49.136719 24.894531 49.136719 24.15625 49.136719 23.371094 L 49.136719 22.96875 C 49.136719 22.53125 49.136719 22.097656 49.136719 21.660156 L 49.136719 20.75 C 49.136719 20.117188 49.136719 19.480469 49.136719 18.847656 C 49.136719 18.03125 49.136719 17.214844 49.136719 16.398438 C 49.136719 15.773438 49.136719 15.148438 49.136719 14.523438 C 49.136719 14.222656 49.136719 13.921875 49.136719 13.621094 C 49.136719 13.199219 49.136719 12.78125 49.136719 12.363281 L 49.136719 11.640625 L 49.160156 11.105469 Z M 62.027344 45.175781 L 61.457031 45.5 L 60.84375 45.851562 L 60.207031 46.210938 C 59.570312 46.570312 58.9375 46.933594 58.300781 47.296875 L 57.304688 47.863281 C 56.679688 48.21875 56.058594 48.574219 55.433594 48.933594 C 54.75 49.328125 54.0625 49.71875 53.375 50.109375 L 51.949219 50.921875 L 51.253906 51.316406 C 50.925781 51.5 50.601562 51.6875 50.273438 51.871094 L 49.707031 52.195312 C 49.136719 52.535156 48.582031 52.882812 48.042969 53.265625 C 47.820312 53.707031 47.820312 53.996094 47.804688 54.484375 L 47.785156 55.019531 C 47.765625 55.820312 47.75 56.625 47.738281 57.429688 C 47.730469 57.855469 47.71875 58.28125 47.703125 58.703125 C 47.683594 59.316406 47.671875 59.925781 47.667969 60.539062 L 47.640625 61.109375 C 47.640625 61.664062 47.664062 62.074219 47.855469 62.59375 C 48.417969 63.105469 49.035156 63.398438 49.71875 63.710938 C 49.9375 63.835938 50.152344 63.964844 50.363281 64.09375 C 50.976562 64.453125 51.589844 64.8125 52.203125 65.167969 L 52.53125 65.363281 C 52.847656 65.550781 53.167969 65.734375 53.484375 65.917969 L 54.050781 66.25 C 54.566406 66.507812 54.929688 66.664062 55.503906 66.695312 C 56.019531 66.523438 56.019531 66.523438 56.539062 66.230469 L 57.132812 65.917969 C 58.109375 65.375 59.078125 64.816406 60.039062 64.25 L 61.191406 63.570312 L 61.730469 63.25 C 62.027344 63.078125 62.332031 62.914062 62.640625 62.757812 C 63.039062 62.574219 63.039062 62.574219 63.523438 62.21875 C 63.75 61.347656 63.738281 60.464844 63.734375 59.566406 L 63.738281 59.113281 C 63.738281 58.621094 63.738281 58.128906 63.738281 57.636719 C 63.738281 57.292969 63.738281 56.949219 63.738281 56.609375 C 63.738281 55.890625 63.738281 55.171875 63.734375 54.453125 C 63.734375 53.53125 63.734375 52.613281 63.738281 51.691406 C 63.738281 50.984375 63.738281 50.277344 63.738281 49.566406 C 63.738281 49.226562 63.738281 48.886719 63.738281 48.550781 C 63.738281 48.074219 63.738281 47.601562 63.734375 47.128906 L 63.738281 46.703125 C 63.734375 46.007812 63.691406 45.363281 63.523438 44.683594 C 62.859375 44.683594 62.601562 44.851562 62.027344 45.175781 " fill-opacity="1" fill-rule="nonzero"/></svg>